<svg width="644" height="404" fill="none" xmlns="http://www.w3.org/2000/svg"><path d="M104.771 168.423c6.202 5.234 16.211 10.689 24.898 14.093-7.473-5.423-14.909-11.535-22.331-19.535 6.178-13.175 13.555-31.372 21.161-49.948 12.4 31.684 35.513 79.366 66.475 135.939-8.412-4.618-16.033-7.248-23.902-9.28 2.608 1.488 8.772 4.852 12.727 7.556 6.248 4.272 12.031 8.943 17.469 13.415A5020.08 5020.08 0 0 1 216 287.966c-24.697-14.3-48.697-25.883-68.359-29.461 6.437-35.708-18.758-56.775-33.073-34.046-5.511 8.751-7.002 23.169-4.388 33.883-24.86 4.787-49.184 18.187-69.18 29.624 23.291-42.204 46.84-84.987 63.771-119.543ZM315.48 212.6c0 1.073-.093 2.007-.28 2.8.187.747.28 1.68.28 2.8 0 1.073-.093 2.007-.28 2.8h-5.6c-.187-.793-.28-1.727-.28-2.8 0-1.12.093-2.053.28-2.8-.187-.793-.28-1.727-.28-2.8 0-1.12.093-2.053.28-2.8h-11.2c.187.747.28 1.68.28 2.8 0 1.073-.093 2.007-.28 2.8.187.747.28 1.68.28 2.8 0 1.073-.093 2.007-.28 2.8h-5.6c-.187-.793-.28-1.727-.28-2.8 0-1.12.093-2.053.28-2.8-.187-.793-.28-1.727-.28-2.8 0-1.12.093-2.053.28-2.8h2.1c-.187-.793-.28-1.727-.28-2.8 0-1.12.093-2.053.28-2.8-.187-.793-.28-1.727-.28-2.8 0-1.12.093-2.053.28-2.8h1.4c-.187-.793-.28-1.727-.28-2.8 0-1.12.093-2.053.28-2.8h2.1c-.187-.793-.28-1.727-.28-2.8 0-1.12.093-2.053.28-2.8h1.4c-.187-.793-.28-1.727-.28-2.8 0-1.12.093-2.053.28-2.8h8.4c.187.747.28 1.68.28 2.8 0 1.073-.093 2.007-.28 2.8h1.4c.187.747.28 1.68.28 2.8 0 1.073-.093 2.007-.28 2.8h2.1c.187.747.28 1.68.28 2.8 0 1.073-.093 2.007-.28 2.8h1.4c.187.747.28 1.68.28 2.8 0 1.073-.093 2.007-.28 2.8.187.747.28 1.68.28 2.8 0 1.073-.093 2.007-.28 2.8h2.1c.187.747.28 1.68.28 2.8Zm-7.98-8.4c-.187-.793-.28-1.727-.28-2.8 0-1.12.093-2.053.28-2.8h-1.4c-.187-.793-.28-1.727-.28-2.8 0-1.12.093-2.053.28-2.8h-4.2c.187.747.28 1.68.28 2.8 0 1.073-.093 2.007-.28 2.8h-1.4c.187.747.28 1.68.28 2.8 0 1.073-.093 2.007-.28 2.8h7Zm35.727 11.2c.187.747.28 1.68.28 2.8 0 1.073-.093 2.007-.28 2.8h-5.6c-.186-.793-.28-1.727-.28-2.8 0-1.12.094-2.053.28-2.8h-2.1c-.186-.793-.28-1.727-.28-2.8 0-1.12.094-2.053.28-2.8h-2.1c-.186-.793-.28-1.727-.28-2.8 0-1.12.094-2.053.28-2.8h-7c.187.747.28 1.68.28 2.8 0 1.073-.093 2.007-.28 2.8.187.747.28 1.68.28 2.8 0 1.073-.093 2.007-.28 2.8.187.747.28 1.68.28 2.8 0 1.073-.093 2.007-.28 2.8h-5.6c-.186-.793-.28-1.727-.28-2.8 0-1.12.094-2.053.28-2.8-.186-.793-.28-1.727-.28-2.8 0-1.12.094-2.053.28-2.8-.186-.793-.28-1.727-.28-2.8 0-1.12.094-2.053.28-2.8-.186-.793-.28-1.727-.28-2.8 0-1.12.094-2.053.28-2.8-.186-.793-.28-1.727-.28-2.8 0-1.12.094-2.053.28-2.8-.186-.793-.28-1.727-.28-2.8 0-1.12.094-2.053.28-2.8-.186-.793-.28-1.727-.28-2.8 0-1.12.094-2.053.28-2.8h19.6c.187.747.28 1.68.28 2.8 0 1.073-.093 2.007-.28 2.8h2.8c.187.747.28 1.68.28 2.8 0 1.073-.093 2.007-.28 2.8h-1.4c.187.747.28 1.68.28 2.8 0 1.073-.093 2.007-.28 2.8h-4.2c.187.747.28 1.68.28 2.8 0 1.073-.093 2.007-.28 2.8h1.4c.187.747.28 1.68.28 2.8 0 1.073-.093 2.007-.28 2.8h2.1c.187.747.28 1.68.28 2.8 0 1.073-.093 2.007-.28 2.8h2.1Zm-7-16.8c-.186-.793-.28-1.727-.28-2.8 0-1.12.094-2.053.28-2.8-.186-.793-.28-1.727-.28-2.8 0-1.12.094-2.053.28-2.8h-9.8c.187.747.28 1.68.28 2.8 0 1.073-.093 2.007-.28 2.8.187.747.28 1.68.28 2.8 0 1.073-.093 2.007-.28 2.8h9.8Zm35.028 11.2c.186.747.28 1.68.28 2.8 0 1.073-.094 2.007-.28 2.8h-2.8c.186.747.28 1.68.28 2.8 0 1.073-.094 2.007-.28 2.8h-14c-.187-.793-.28-1.727-.28-2.8 0-1.12.093-2.053.28-2.8h-2.8c-.187-.793-.28-1.727-.28-2.8 0-1.12.093-2.053.28-2.8h-2.8c-.187-.793-.28-1.727-.28-2.8 0-1.12.093-2.053.28-2.8-.187-.793-.28-1.727-.28-2.8 0-1.12.093-2.053.28-2.8-.187-.793-.28-1.727-.28-2.8 0-1.12.093-2.053.28-2.8h2.8c-.187-.793-.28-1.727-.28-2.8 0-1.12.093-2.053.28-2.8h2.8c-.187-.793-.28-1.727-.28-2.8 0-1.12.093-2.053.28-2.8h14c.186.747.28 1.68.28 2.8 0 1.073-.094 2.007-.28 2.8h2.8c.186.747.28 1.68.28 2.8 0 1.073-.094 2.007-.28 2.8h-5.6c-.187-.793-.28-1.727-.28-2.8 0-1.12.093-2.053.28-2.8h-8.4c.186.747.28 1.68.28 2.8 0 1.073-.094 2.007-.28 2.8h-2.8c.186.747.28 1.68.28 2.8 0 1.073-.094 2.007-.28 2.8.186.747.28 1.68.28 2.8 0 1.073-.094 2.007-.28 2.8.186.747.28 1.68.28 2.8 0 1.073-.094 2.007-.28 2.8h2.8c.186.747.28 1.68.28 2.8 0 1.073-.094 2.007-.28 2.8h8.4c-.187-.793-.28-1.727-.28-2.8 0-1.12.093-2.053.28-2.8h5.6Zm28.027-22.4c.187.747.28 1.68.28 2.8 0 1.073-.093 2.007-.28 2.8.187.747.28 1.68.28 2.8 0 1.073-.093 2.007-.28 2.8.187.747.28 1.68.28 2.8 0 1.073-.093 2.007-.28 2.8.187.747.28 1.68.28 2.8 0 1.073-.093 2.007-.28 2.8.187.747.28 1.68.28 2.8 0 1.073-.093 2.007-.28 2.8.187.747.28 1.68.28 2.8 0 1.073-.093 2.007-.28 2.8h-5.6c-.187-.793-.28-1.727-.28-2.8 0-1.12.093-2.053.28-2.8-.187-.793-.28-1.727-.28-2.8 0-1.12.093-2.053.28-2.8-.187-.793-.28-1.727-.28-2.8 0-1.12.093-2.053.28-2.8h-11.2c.187.747.28 1.68.28 2.8 0 1.073-.093 2.007-.28 2.8.187.747.28 1.68.28 2.8 0 1.073-.093 2.007-.28 2.8.187.747.28 1.68.28 2.8 0 1.073-.093 2.007-.28 2.8h-5.6c-.187-.793-.28-1.727-.28-2.8 0-1.12.093-2.053.28-2.8-.187-.793-.28-1.727-.28-2.8 0-1.12.093-2.053.28-2.8-.187-.793-.28-1.727-.28-2.8 0-1.12.093-2.053.28-2.8-.187-.793-.28-1.727-.28-2.8 0-1.12.093-2.053.28-2.8-.187-.793-.28-1.727-.28-2.8 0-1.12.093-2.053.28-2.8-.187-.793-.28-1.727-.28-2.8 0-1.12.093-2.053.28-2.8-.187-.793-.28-1.727-.28-2.8 0-1.12.093-2.053.28-2.8h5.6c.187.747.28 1.68.28 2.8 0 1.073-.093 2.007-.28 2.8.187.747.28 1.68.28 2.8 0 1.073-.093 2.007-.28 2.8.187.747.28 1.68.28 2.8 0 1.073-.093 2.007-.28 2.8h11.2c-.187-.793-.28-1.727-.28-2.8 0-1.12.093-2.053.28-2.8-.187-.793-.28-1.727-.28-2.8 0-1.12.093-2.053.28-2.8-.187-.793-.28-1.727-.28-2.8 0-1.12.093-2.053.28-2.8h5.6c.187.747.28 1.68.28 2.8 0 1.073-.093 2.007-.28 2.8Zm56.055 11.2c.186.747.28 1.68.28 2.8 0 1.073-.094 2.007-.28 2.8.186.747.28 1.68.28 2.8 0 1.073-.094 2.007-.28 2.8.186.747.28 1.68.28 2.8 0 1.073-.094 2.007-.28 2.8h-2.8c.186.747.28 1.68.28 2.8 0 1.073-.094 2.007-.28 2.8h-14c-.187-.793-.28-1.727-.28-2.8 0-1.12.093-2.053.28-2.8h-2.8c-.187-.793-.28-1.727-.28-2.8 0-1.12.093-2.053.28-2.8h-2.8c-.187-.793-.28-1.727-.28-2.8 0-1.12.093-2.053.28-2.8-.187-.793-.28-1.727-.28-2.8 0-1.12.093-2.053.28-2.8-.187-.793-.28-1.727-.28-2.8 0-1.12.093-2.053.28-2.8h2.8c-.187-.793-.28-1.727-.28-2.8 0-1.12.093-2.053.28-2.8h2.8c-.187-.793-.28-1.727-.28-2.8 0-1.12.093-2.053.28-2.8h14c.186.747.28 1.68.28 2.8 0 1.073-.094 2.007-.28 2.8h2.8c.186.747.28 1.68.28 2.8 0 1.073-.094 2.007-.28 2.8h-5.6c-.187-.793-.28-1.727-.28-2.8 0-1.12.093-2.053.28-2.8h-8.4c.186.747.28 1.68.28 2.8 0 1.073-.094 2.007-.28 2.8h-2.8c.186.747.28 1.68.28 2.8 0 1.073-.094 2.007-.28 2.8.186.747.28 1.68.28 2.8 0 1.073-.094 2.007-.28 2.8.186.747.28 1.68.28 2.8 0 1.073-.094 2.007-.28 2.8h2.8c.186.747.28 1.68.28 2.8 0 1.073-.094 2.007-.28 2.8h8.4c-.187-.793-.28-1.727-.28-2.8 0-1.12.093-2.053.28-2.8-.187-.793-.28-1.727-.28-2.8 0-1.12.093-2.053.28-2.8h-4.2c-.187-.793-.28-1.727-.28-2.8 0-1.12.093-2.053.28-2.8h9.8Zm28.027-11.2c.187.747.28 1.68.28 2.8 0 1.073-.093 2.007-.28 2.8.187.747.28 1.68.28 2.8 0 1.073-.093 2.007-.28 2.8.187.747.28 1.68.28 2.8 0 1.073-.093 2.007-.28 2.8.187.747.28 1.68.28 2.8 0 1.073-.093 2.007-.28 2.8.187.747.28 1.68.28 2.8 0 1.073-.093 2.007-.28 2.8h-2.8c.187.747.28 1.68.28 2.8 0 1.073-.093 2.007-.28 2.8h-16.8c-.187-.793-.28-1.727-.28-2.8 0-1.12.093-2.053.28-2.8h-2.8c-.187-.793-.28-1.727-.28-2.8 0-1.12.093-2.053.28-2.8-.187-.793-.28-1.727-.28-2.8 0-1.12.093-2.053.28-2.8-.187-.793-.28-1.727-.28-2.8 0-1.12.093-2.053.28-2.8-.187-.793-.28-1.727-.28-2.8 0-1.12.093-2.053.28-2.8-.187-.793-.28-1.727-.28-2.8 0-1.12.093-2.053.28-2.8-.187-.793-.28-1.727-.28-2.8 0-1.12.093-2.053.28-2.8h5.6c.187.747.28 1.68.28 2.8 0 1.073-.093 2.007-.28 2.8.187.747.28 1.68.28 2.8 0 1.073-.093 2.007-.28 2.8.187.747.28 1.68.28 2.8 0 1.073-.093 2.007-.28 2.8.187.747.28 1.68.28 2.8 0 1.073-.093 2.007-.28 2.8.187.747.28 1.68.28 2.8 0 1.073-.093 2.007-.28 2.8.187.747.28 1.68.28 2.8 0 1.073-.093 2.007-.28 2.8h11.2c-.187-.793-.28-1.727-.28-2.8 0-1.12.093-2.053.28-2.8-.187-.793-.28-1.727-.28-2.8 0-1.12.093-2.053.28-2.8-.187-.793-.28-1.727-.28-2.8 0-1.12.093-2.053.28-2.8-.187-.793-.28-1.727-.28-2.8 0-1.12.093-2.053.28-2.8-.187-.793-.28-1.727-.28-2.8 0-1.12.093-2.053.28-2.8-.187-.793-.28-1.727-.28-2.8 0-1.12.093-2.053.28-2.8h5.6c.187.747.28 1.68.28 2.8 0 1.073-.093 2.007-.28 2.8Zm23.827 28c.187.747.28 1.68.28 2.8 0 1.073-.093 2.007-.28 2.8h-14c-.186-.793-.28-1.727-.28-2.8 0-1.12.094-2.053.28-2.8h4.2c-.186-.793-.28-1.727-.28-2.8 0-1.12.094-2.053.28-2.8-.186-.793-.28-1.727-.28-2.8 0-1.12.094-2.053.28-2.8-.186-.793-.28-1.727-.28-2.8 0-1.12.094-2.053.28-2.8-.186-.793-.28-1.727-.28-2.8 0-1.12.094-2.053.28-2.8-.186-.793-.28-1.727-.28-2.8 0-1.12.094-2.053.28-2.8h-4.2c-.186-.793-.28-1.727-.28-2.8 0-1.12.094-2.053.28-2.8h14c.187.747.28 1.68.28 2.8 0 1.073-.093 2.007-.28 2.8h-4.2c.187.747.28 1.68.28 2.8 0 1.073-.093 2.007-.28 2.8.187.747.28 1.68.28 2.8 0 1.073-.093 2.007-.28 2.8.187.747.28 1.68.28 2.8 0 1.073-.093 2.007-.28 2.8.187.747.28 1.68.28 2.8 0 1.073-.093 2.007-.28 2.8.187.747.28 1.68.28 2.8 0 1.073-.093 2.007-.28 2.8h4.2Z" fill="#fff" fill-opacity=".5"/><g filter="url(#a)"><rect x="2" width="640" height="400" rx="5" fill="#775ADA" fill-opacity=".1" shape-rendering="crispEdges"/></g><defs><filter id="a" x="0" y="0" width="644" height="404" filterUnits="userSpaceOnUse" color-interpolation-filters="sRGB"><feFlood flood-opacity="0" result="BackgroundImageFix"/><feColorMatrix in="SourceAlpha" values="0 0 0 0 0 0 0 0 0 0 0 0 0 0 0 0 0 0 127 0" result="hardAlpha"/><feOffset dy="2"/><feGaussianBlur stdDeviation="1"/><feComposite in2="hardAlpha" operator="out"/><feColorMatrix values="0 0 0 0 0.00392157 0 0 0 0 0.129412 0 0 0 0 0.27451 0 0 0 0.95 0"/><feBlend in2="BackgroundImageFix" result="effect1_dropShadow_366_105"/><feBlend in="SourceGraphic" in2="effect1_dropShadow_366_105" result="shape"/></filter></defs></svg>