<svg width="644" height="404" viewBox="0 0 644 404" fill="none" xmlns="http://www.w3.org/2000/svg">
<path d="M104.771 168.423C110.973 173.657 120.982 179.112 129.669 182.516C122.196 177.093 114.76 170.981 107.338 162.981C113.516 149.806 120.893 131.609 128.499 113.033C140.899 144.717 164.012 192.399 194.974 248.972C186.562 244.354 178.941 241.724 171.072 239.692C173.68 241.18 179.844 244.544 183.799 247.248C190.047 251.52 195.83 256.191 201.268 260.663C206.121 269.588 211.034 278.697 216 287.966C191.303 273.666 167.303 262.083 147.641 258.505C154.078 222.797 128.883 201.73 114.568 224.459C109.057 233.21 107.566 247.628 110.18 258.342C85.3198 263.129 60.9961 276.529 41 287.966C64.2911 245.762 87.8392 202.979 104.771 168.423Z" fill="white" fill-opacity="0.5"/>
<path d="M315.48 212.6C315.48 213.673 315.387 214.607 315.2 215.4C315.387 216.147 315.48 217.08 315.48 218.2C315.48 219.273 315.387 220.207 315.2 221H309.6C309.413 220.207 309.32 219.273 309.32 218.2C309.32 217.08 309.413 216.147 309.6 215.4C309.413 214.607 309.32 213.673 309.32 212.6C309.32 211.48 309.413 210.547 309.6 209.8H298.4C298.587 210.547 298.68 211.48 298.68 212.6C298.68 213.673 298.587 214.607 298.4 215.4C298.587 216.147 298.68 217.08 298.68 218.2C298.68 219.273 298.587 220.207 298.4 221H292.8C292.613 220.207 292.52 219.273 292.52 218.2C292.52 217.08 292.613 216.147 292.8 215.4C292.613 214.607 292.52 213.673 292.52 212.6C292.52 211.48 292.613 210.547 292.8 209.8H294.9C294.713 209.007 294.62 208.073 294.62 207C294.62 205.88 294.713 204.947 294.9 204.2C294.713 203.407 294.62 202.473 294.62 201.4C294.62 200.28 294.713 199.347 294.9 198.6H296.3C296.113 197.807 296.02 196.873 296.02 195.8C296.02 194.68 296.113 193.747 296.3 193H298.4C298.213 192.207 298.12 191.273 298.12 190.2C298.12 189.08 298.213 188.147 298.4 187.4H299.8C299.613 186.607 299.52 185.673 299.52 184.6C299.52 183.48 299.613 182.547 299.8 181.8H308.2C308.387 182.547 308.48 183.48 308.48 184.6C308.48 185.673 308.387 186.607 308.2 187.4H309.6C309.787 188.147 309.88 189.08 309.88 190.2C309.88 191.273 309.787 192.207 309.6 193H311.7C311.887 193.747 311.98 194.68 311.98 195.8C311.98 196.873 311.887 197.807 311.7 198.6H313.1C313.287 199.347 313.38 200.28 313.38 201.4C313.38 202.473 313.287 203.407 313.1 204.2C313.287 204.947 313.38 205.88 313.38 207C313.38 208.073 313.287 209.007 313.1 209.8H315.2C315.387 210.547 315.48 211.48 315.48 212.6ZM307.5 204.2C307.313 203.407 307.22 202.473 307.22 201.4C307.22 200.28 307.313 199.347 307.5 198.6H306.1C305.913 197.807 305.82 196.873 305.82 195.8C305.82 194.68 305.913 193.747 306.1 193H301.9C302.087 193.747 302.18 194.68 302.18 195.8C302.18 196.873 302.087 197.807 301.9 198.6H300.5C300.687 199.347 300.78 200.28 300.78 201.4C300.78 202.473 300.687 203.407 300.5 204.2H307.5ZM343.227 215.4C343.414 216.147 343.507 217.08 343.507 218.2C343.507 219.273 343.414 220.207 343.227 221H337.627C337.441 220.207 337.347 219.273 337.347 218.2C337.347 217.08 337.441 216.147 337.627 215.4H335.527C335.341 214.607 335.247 213.673 335.247 212.6C335.247 211.48 335.341 210.547 335.527 209.8H333.427C333.241 209.007 333.147 208.073 333.147 207C333.147 205.88 333.241 204.947 333.427 204.2H326.427C326.614 204.947 326.707 205.88 326.707 207C326.707 208.073 326.614 209.007 326.427 209.8C326.614 210.547 326.707 211.48 326.707 212.6C326.707 213.673 326.614 214.607 326.427 215.4C326.614 216.147 326.707 217.08 326.707 218.2C326.707 219.273 326.614 220.207 326.427 221H320.827C320.641 220.207 320.547 219.273 320.547 218.2C320.547 217.08 320.641 216.147 320.827 215.4C320.641 214.607 320.547 213.673 320.547 212.6C320.547 211.48 320.641 210.547 320.827 209.8C320.641 209.007 320.547 208.073 320.547 207C320.547 205.88 320.641 204.947 320.827 204.2C320.641 203.407 320.547 202.473 320.547 201.4C320.547 200.28 320.641 199.347 320.827 198.6C320.641 197.807 320.547 196.873 320.547 195.8C320.547 194.68 320.641 193.747 320.827 193C320.641 192.207 320.547 191.273 320.547 190.2C320.547 189.08 320.641 188.147 320.827 187.4C320.641 186.607 320.547 185.673 320.547 184.6C320.547 183.48 320.641 182.547 320.827 181.8H340.427C340.614 182.547 340.707 183.48 340.707 184.6C340.707 185.673 340.614 186.607 340.427 187.4H343.227C343.414 188.147 343.507 189.08 343.507 190.2C343.507 191.273 343.414 192.207 343.227 193H341.827C342.014 193.747 342.107 194.68 342.107 195.8C342.107 196.873 342.014 197.807 341.827 198.6H337.627C337.814 199.347 337.907 200.28 337.907 201.4C337.907 202.473 337.814 203.407 337.627 204.2H339.027C339.214 204.947 339.307 205.88 339.307 207C339.307 208.073 339.214 209.007 339.027 209.8H341.127C341.314 210.547 341.407 211.48 341.407 212.6C341.407 213.673 341.314 214.607 341.127 215.4H343.227ZM336.227 198.6C336.041 197.807 335.947 196.873 335.947 195.8C335.947 194.68 336.041 193.747 336.227 193C336.041 192.207 335.947 191.273 335.947 190.2C335.947 189.08 336.041 188.147 336.227 187.4H326.427C326.614 188.147 326.707 189.08 326.707 190.2C326.707 191.273 326.614 192.207 326.427 193C326.614 193.747 326.707 194.68 326.707 195.8C326.707 196.873 326.614 197.807 326.427 198.6H336.227ZM371.255 209.8C371.441 210.547 371.535 211.48 371.535 212.6C371.535 213.673 371.441 214.607 371.255 215.4H368.455C368.641 216.147 368.735 217.08 368.735 218.2C368.735 219.273 368.641 220.207 368.455 221H354.455C354.268 220.207 354.175 219.273 354.175 218.2C354.175 217.08 354.268 216.147 354.455 215.4H351.655C351.468 214.607 351.375 213.673 351.375 212.6C351.375 211.48 351.468 210.547 351.655 209.8H348.855C348.668 209.007 348.575 208.073 348.575 207C348.575 205.88 348.668 204.947 348.855 204.2C348.668 203.407 348.575 202.473 348.575 201.4C348.575 200.28 348.668 199.347 348.855 198.6C348.668 197.807 348.575 196.873 348.575 195.8C348.575 194.68 348.668 193.747 348.855 193H351.655C351.468 192.207 351.375 191.273 351.375 190.2C351.375 189.08 351.468 188.147 351.655 187.4H354.455C354.268 186.607 354.175 185.673 354.175 184.6C354.175 183.48 354.268 182.547 354.455 181.8H368.455C368.641 182.547 368.735 183.48 368.735 184.6C368.735 185.673 368.641 186.607 368.455 187.4H371.255C371.441 188.147 371.535 189.08 371.535 190.2C371.535 191.273 371.441 192.207 371.255 193H365.655C365.468 192.207 365.375 191.273 365.375 190.2C365.375 189.08 365.468 188.147 365.655 187.4H357.255C357.441 188.147 357.535 189.08 357.535 190.2C357.535 191.273 357.441 192.207 357.255 193H354.455C354.641 193.747 354.735 194.68 354.735 195.8C354.735 196.873 354.641 197.807 354.455 198.6C354.641 199.347 354.735 200.28 354.735 201.4C354.735 202.473 354.641 203.407 354.455 204.2C354.641 204.947 354.735 205.88 354.735 207C354.735 208.073 354.641 209.007 354.455 209.8H357.255C357.441 210.547 357.535 211.48 357.535 212.6C357.535 213.673 357.441 214.607 357.255 215.4H365.655C365.468 214.607 365.375 213.673 365.375 212.6C365.375 211.48 365.468 210.547 365.655 209.8H371.255ZM399.282 187.4C399.469 188.147 399.562 189.08 399.562 190.2C399.562 191.273 399.469 192.207 399.282 193C399.469 193.747 399.562 194.68 399.562 195.8C399.562 196.873 399.469 197.807 399.282 198.6C399.469 199.347 399.562 200.28 399.562 201.4C399.562 202.473 399.469 203.407 399.282 204.2C399.469 204.947 399.562 205.88 399.562 207C399.562 208.073 399.469 209.007 399.282 209.8C399.469 210.547 399.562 211.48 399.562 212.6C399.562 213.673 399.469 214.607 399.282 215.4C399.469 216.147 399.562 217.08 399.562 218.2C399.562 219.273 399.469 220.207 399.282 221H393.682C393.495 220.207 393.402 219.273 393.402 218.2C393.402 217.08 393.495 216.147 393.682 215.4C393.495 214.607 393.402 213.673 393.402 212.6C393.402 211.48 393.495 210.547 393.682 209.8C393.495 209.007 393.402 208.073 393.402 207C393.402 205.88 393.495 204.947 393.682 204.2H382.482C382.669 204.947 382.762 205.88 382.762 207C382.762 208.073 382.669 209.007 382.482 209.8C382.669 210.547 382.762 211.48 382.762 212.6C382.762 213.673 382.669 214.607 382.482 215.4C382.669 216.147 382.762 217.08 382.762 218.2C382.762 219.273 382.669 220.207 382.482 221H376.882C376.695 220.207 376.602 219.273 376.602 218.2C376.602 217.08 376.695 216.147 376.882 215.4C376.695 214.607 376.602 213.673 376.602 212.6C376.602 211.48 376.695 210.547 376.882 209.8C376.695 209.007 376.602 208.073 376.602 207C376.602 205.88 376.695 204.947 376.882 204.2C376.695 203.407 376.602 202.473 376.602 201.4C376.602 200.28 376.695 199.347 376.882 198.6C376.695 197.807 376.602 196.873 376.602 195.8C376.602 194.68 376.695 193.747 376.882 193C376.695 192.207 376.602 191.273 376.602 190.2C376.602 189.08 376.695 188.147 376.882 187.4C376.695 186.607 376.602 185.673 376.602 184.6C376.602 183.48 376.695 182.547 376.882 181.8H382.482C382.669 182.547 382.762 183.48 382.762 184.6C382.762 185.673 382.669 186.607 382.482 187.4C382.669 188.147 382.762 189.08 382.762 190.2C382.762 191.273 382.669 192.207 382.482 193C382.669 193.747 382.762 194.68 382.762 195.8C382.762 196.873 382.669 197.807 382.482 198.6H393.682C393.495 197.807 393.402 196.873 393.402 195.8C393.402 194.68 393.495 193.747 393.682 193C393.495 192.207 393.402 191.273 393.402 190.2C393.402 189.08 393.495 188.147 393.682 187.4C393.495 186.607 393.402 185.673 393.402 184.6C393.402 183.48 393.495 182.547 393.682 181.8H399.282C399.469 182.547 399.562 183.48 399.562 184.6C399.562 185.673 399.469 186.607 399.282 187.4ZM455.337 198.6C455.523 199.347 455.617 200.28 455.617 201.4C455.617 202.473 455.523 203.407 455.337 204.2C455.523 204.947 455.617 205.88 455.617 207C455.617 208.073 455.523 209.007 455.337 209.8C455.523 210.547 455.617 211.48 455.617 212.6C455.617 213.673 455.523 214.607 455.337 215.4H452.537C452.723 216.147 452.817 217.08 452.817 218.2C452.817 219.273 452.723 220.207 452.537 221H438.537C438.35 220.207 438.257 219.273 438.257 218.2C438.257 217.08 438.35 216.147 438.537 215.4H435.737C435.55 214.607 435.457 213.673 435.457 212.6C435.457 211.48 435.55 210.547 435.737 209.8H432.937C432.75 209.007 432.657 208.073 432.657 207C432.657 205.88 432.75 204.947 432.937 204.2C432.75 203.407 432.657 202.473 432.657 201.4C432.657 200.28 432.75 199.347 432.937 198.6C432.75 197.807 432.657 196.873 432.657 195.8C432.657 194.68 432.75 193.747 432.937 193H435.737C435.55 192.207 435.457 191.273 435.457 190.2C435.457 189.08 435.55 188.147 435.737 187.4H438.537C438.35 186.607 438.257 185.673 438.257 184.6C438.257 183.48 438.35 182.547 438.537 181.8H452.537C452.723 182.547 452.817 183.48 452.817 184.6C452.817 185.673 452.723 186.607 452.537 187.4H455.337C455.523 188.147 455.617 189.08 455.617 190.2C455.617 191.273 455.523 192.207 455.337 193H449.737C449.55 192.207 449.457 191.273 449.457 190.2C449.457 189.08 449.55 188.147 449.737 187.4H441.337C441.523 188.147 441.617 189.08 441.617 190.2C441.617 191.273 441.523 192.207 441.337 193H438.537C438.723 193.747 438.817 194.68 438.817 195.8C438.817 196.873 438.723 197.807 438.537 198.6C438.723 199.347 438.817 200.28 438.817 201.4C438.817 202.473 438.723 203.407 438.537 204.2C438.723 204.947 438.817 205.88 438.817 207C438.817 208.073 438.723 209.007 438.537 209.8H441.337C441.523 210.547 441.617 211.48 441.617 212.6C441.617 213.673 441.523 214.607 441.337 215.4H449.737C449.55 214.607 449.457 213.673 449.457 212.6C449.457 211.48 449.55 210.547 449.737 209.8C449.55 209.007 449.457 208.073 449.457 207C449.457 205.88 449.55 204.947 449.737 204.2H445.537C445.35 203.407 445.257 202.473 445.257 201.4C445.257 200.28 445.35 199.347 445.537 198.6H455.337ZM483.364 187.4C483.551 188.147 483.644 189.08 483.644 190.2C483.644 191.273 483.551 192.207 483.364 193C483.551 193.747 483.644 194.68 483.644 195.8C483.644 196.873 483.551 197.807 483.364 198.6C483.551 199.347 483.644 200.28 483.644 201.4C483.644 202.473 483.551 203.407 483.364 204.2C483.551 204.947 483.644 205.88 483.644 207C483.644 208.073 483.551 209.007 483.364 209.8C483.551 210.547 483.644 211.48 483.644 212.6C483.644 213.673 483.551 214.607 483.364 215.4H480.564C480.751 216.147 480.844 217.08 480.844 218.2C480.844 219.273 480.751 220.207 480.564 221H463.764C463.577 220.207 463.484 219.273 463.484 218.2C463.484 217.08 463.577 216.147 463.764 215.4H460.964C460.777 214.607 460.684 213.673 460.684 212.6C460.684 211.48 460.777 210.547 460.964 209.8C460.777 209.007 460.684 208.073 460.684 207C460.684 205.88 460.777 204.947 460.964 204.2C460.777 203.407 460.684 202.473 460.684 201.4C460.684 200.28 460.777 199.347 460.964 198.6C460.777 197.807 460.684 196.873 460.684 195.8C460.684 194.68 460.777 193.747 460.964 193C460.777 192.207 460.684 191.273 460.684 190.2C460.684 189.08 460.777 188.147 460.964 187.4C460.777 186.607 460.684 185.673 460.684 184.6C460.684 183.48 460.777 182.547 460.964 181.8H466.564C466.751 182.547 466.844 183.48 466.844 184.6C466.844 185.673 466.751 186.607 466.564 187.4C466.751 188.147 466.844 189.08 466.844 190.2C466.844 191.273 466.751 192.207 466.564 193C466.751 193.747 466.844 194.68 466.844 195.8C466.844 196.873 466.751 197.807 466.564 198.6C466.751 199.347 466.844 200.28 466.844 201.4C466.844 202.473 466.751 203.407 466.564 204.2C466.751 204.947 466.844 205.88 466.844 207C466.844 208.073 466.751 209.007 466.564 209.8C466.751 210.547 466.844 211.48 466.844 212.6C466.844 213.673 466.751 214.607 466.564 215.4H477.764C477.577 214.607 477.484 213.673 477.484 212.6C477.484 211.48 477.577 210.547 477.764 209.8C477.577 209.007 477.484 208.073 477.484 207C477.484 205.88 477.577 204.947 477.764 204.2C477.577 203.407 477.484 202.473 477.484 201.4C477.484 200.28 477.577 199.347 477.764 198.6C477.577 197.807 477.484 196.873 477.484 195.8C477.484 194.68 477.577 193.747 477.764 193C477.577 192.207 477.484 191.273 477.484 190.2C477.484 189.08 477.577 188.147 477.764 187.4C477.577 186.607 477.484 185.673 477.484 184.6C477.484 183.48 477.577 182.547 477.764 181.8H483.364C483.551 182.547 483.644 183.48 483.644 184.6C483.644 185.673 483.551 186.607 483.364 187.4ZM507.191 215.4C507.378 216.147 507.471 217.08 507.471 218.2C507.471 219.273 507.378 220.207 507.191 221H493.191C493.005 220.207 492.911 219.273 492.911 218.2C492.911 217.08 493.005 216.147 493.191 215.4H497.391C497.205 214.607 497.111 213.673 497.111 212.6C497.111 211.48 497.205 210.547 497.391 209.8C497.205 209.007 497.111 208.073 497.111 207C497.111 205.88 497.205 204.947 497.391 204.2C497.205 203.407 497.111 202.473 497.111 201.4C497.111 200.28 497.205 199.347 497.391 198.6C497.205 197.807 497.111 196.873 497.111 195.8C497.111 194.68 497.205 193.747 497.391 193C497.205 192.207 497.111 191.273 497.111 190.2C497.111 189.08 497.205 188.147 497.391 187.4H493.191C493.005 186.607 492.911 185.673 492.911 184.6C492.911 183.48 493.005 182.547 493.191 181.8H507.191C507.378 182.547 507.471 183.48 507.471 184.6C507.471 185.673 507.378 186.607 507.191 187.4H502.991C503.178 188.147 503.271 189.08 503.271 190.2C503.271 191.273 503.178 192.207 502.991 193C503.178 193.747 503.271 194.68 503.271 195.8C503.271 196.873 503.178 197.807 502.991 198.6C503.178 199.347 503.271 200.28 503.271 201.4C503.271 202.473 503.178 203.407 502.991 204.2C503.178 204.947 503.271 205.88 503.271 207C503.271 208.073 503.178 209.007 502.991 209.8C503.178 210.547 503.271 211.48 503.271 212.6C503.271 213.673 503.178 214.607 502.991 215.4H507.191Z" fill="white" fill-opacity="0.5"/>
<g filter="url(#filter0_d_366_105)">
<rect x="2" width="640" height="400" rx="5" fill="#775ADA" fill-opacity="0.1" shape-rendering="crispEdges"/>
</g>
<defs>
<filter id="filter0_d_366_105" x="0" y="0" width="644" height="404" filterUnits="userSpaceOnUse" color-interpolation-filters="sRGB">
<feFlood flood-opacity="0" result="BackgroundImageFix"/>
<feColorMatrix in="SourceAlpha" type="matrix" values="0 0 0 0 0 0 0 0 0 0 0 0 0 0 0 0 0 0 127 0" result="hardAlpha"/>
<feOffset dy="2"/>
<feGaussianBlur stdDeviation="1"/>
<feComposite in2="hardAlpha" operator="out"/>
<feColorMatrix type="matrix" values="0 0 0 0 0.00392157 0 0 0 0 0.129412 0 0 0 0 0.27451 0 0 0 0.95 0"/>
<feBlend mode="normal" in2="BackgroundImageFix" result="effect1_dropShadow_366_105"/>
<feBlend mode="normal" in="SourceGraphic" in2="effect1_dropShadow_366_105" result="shape"/>
</filter>
</defs>
</svg>
