<svg width="32" height="32" viewBox="0 0 32 32" fill="none" xmlns="http://www.w3.org/2000/svg">
<path fill-rule="evenodd" clip-rule="evenodd" d="M25.3333 6.66667H22.6667V9.33333H20V12L17.3333 12V14.6667H14.6667V12L12 12V9.33333H9.33333L9.33333 6.66667H6.66667V9.33334H9.33333L9.33333 12H12L12 14.6667H14.6667V17.3333H12V20H9.33333L9.33333 22.6667H6.66667V25.3333H9.33333V22.6667L12 22.6667L12 20H14.6667V17.3333H17.3333V20H20V22.6667L22.6667 22.6667V25.3333H25.3333V22.6667H22.6667V20H20V17.3333H17.3333V14.6667H20L20 12H22.6667L22.6667 9.33333H25.3333V6.66667Z" fill="white" fill-opacity="0.7"/>
</svg>
