<svg width="264" height="264" fill="none" xmlns="http://www.w3.org/2000/svg"><g filter="url(#a)" fill="#775ADA"><path d="M55 25.5h26V51H55V25.5Z"/><path fill-rule="evenodd" clip-rule="evenodd" d="M80.22 26.265H55.78v23.97h24.44v-23.97ZM55 25.5V51h26V25.5H55Z"/><path d="M4 128h25.5v25.5H4V128Z"/><path fill-rule="evenodd" clip-rule="evenodd" d="M28.735 128.765H4.765v23.97h23.97v-23.97ZM4 128v25.5h25.5V128H4Z"/><path d="M234.5 128H260v25.5h-25.5V128Z"/><path fill-rule="evenodd" clip-rule="evenodd" d="M259.235 128.765h-23.97v23.97h23.97v-23.97ZM234.5 128v25.5H260V128h-25.5Z"/><path d="M81 0h25.5v25.5H81V0Z"/><path fill-rule="evenodd" clip-rule="evenodd" d="M105.735.765h-23.97v23.97h23.97V.765ZM81 0v25.5h25.5V0H81Z"/><path d="M106.5 0H132v25.5h-25.5V0Z"/><path fill-rule="evenodd" clip-rule="evenodd" d="M131.235.765h-23.97v23.97h23.97V.765ZM106.5 0v25.5H132V0h-25.5Z"/><path d="M132 0h25.5v25.5H132V0Z"/><path fill-rule="evenodd" clip-rule="evenodd" d="M156.735.765h-23.97v23.97h23.97V.765ZM132 0v25.5h25.5V0H132Z"/><path d="M157.5 0H183v25.5h-25.5V0Z"/><path fill-rule="evenodd" clip-rule="evenodd" d="M182.235.765h-23.97v23.97h23.97V.765ZM157.5 0v25.5H183V0h-25.5Z"/><path d="M183 25.5h26V51h-26V25.5Z"/><path fill-rule="evenodd" clip-rule="evenodd" d="M208.22 26.265h-24.44v23.97h24.44v-23.97ZM183 25.5V51h26V25.5h-26Z"/><path d="M209 51h25.5v26H209V51Z"/><path fill-rule="evenodd" clip-rule="evenodd" d="M233.735 51.78h-23.97v24.44h23.97V51.78ZM209 51v26h25.5V51H209Z"/><path d="M209 77h25.5v25.5H209V77Z"/><path fill-rule="evenodd" clip-rule="evenodd" d="M233.735 77.765h-23.97v23.97h23.97v-23.97ZM209 77v25.5h25.5V77H209Z"/><path d="M209 102.5h25.5V128H209v-25.5Z"/><path fill-rule="evenodd" clip-rule="evenodd" d="M233.735 103.265h-23.97v23.97h23.97v-23.97ZM209 102.5V128h25.5v-25.5H209Z"/><path d="M29.5 230.5H55V256H29.5v-25.5Z"/><path fill-rule="evenodd" clip-rule="evenodd" d="M54.235 231.265h-23.97v23.97h23.97v-23.97ZM29.5 230.5V256H55v-25.5H29.5Z"/><path d="M55 205h26v25.5H55V205Z"/><path fill-rule="evenodd" clip-rule="evenodd" d="M80.22 205.765H55.78v23.97h24.44v-23.97ZM55 205v25.5h26V205H55Z"/><path d="M81 205h25.5v25.5H81V205Z"/><path fill-rule="evenodd" clip-rule="evenodd" d="M105.735 205.765h-23.97v23.97h23.97v-23.97ZM81 205v25.5h25.5V205H81Z"/><path d="M106.5 230.5H132V256h-25.5v-25.5Z"/><path fill-rule="evenodd" clip-rule="evenodd" d="M131.235 231.265h-23.97v23.97h23.97v-23.97ZM106.5 230.5V256H132v-25.5h-25.5Z"/><path d="M132 230.5h25.5V256H132v-25.5Z"/><path fill-rule="evenodd" clip-rule="evenodd" d="M156.735 231.265h-23.97v23.97h23.97v-23.97ZM132 230.5V256h25.5v-25.5H132Z"/><path d="M157.5 205H183v25.5h-25.5V205Z"/><path fill-rule="evenodd" clip-rule="evenodd" d="M182.235 205.765h-23.97v23.97h23.97v-23.97ZM157.5 205v25.5H183V205h-25.5Z"/><path d="M183 205h26v25.5h-26V205Z"/><path fill-rule="evenodd" clip-rule="evenodd" d="M208.22 205.765h-24.44v23.97h24.44v-23.97ZM183 205v25.5h26V205h-26Z"/><path d="M209 230.5h25.5V256H209v-25.5Z"/><path fill-rule="evenodd" clip-rule="evenodd" d="M233.735 231.265h-23.97v23.97h23.97v-23.97ZM209 230.5V256h25.5v-25.5H209Z"/><path d="M29.5 51H55v26H29.5V51Z"/><path fill-rule="evenodd" clip-rule="evenodd" d="M54.235 51.78h-23.97v24.44h23.97V51.78ZM29.5 51v26H55V51H29.5Z"/><path d="M29.5 77H55v25.5H29.5V77Z"/><path fill-rule="evenodd" clip-rule="evenodd" d="M54.235 77.765h-23.97v23.97h23.97v-23.97ZM29.5 77v25.5H55V77H29.5Z"/><path d="M4 153.5h25.5V179H4v-25.5Z"/><path fill-rule="evenodd" clip-rule="evenodd" d="M28.735 154.265H4.765v23.97h23.97v-23.97ZM4 153.5V179h25.5v-25.5H4Z"/><path d="M4 205h25.5v25.5H4V205Z"/><path fill-rule="evenodd" clip-rule="evenodd" d="M28.735 205.765H4.765v23.97h23.97v-23.97ZM4 205v25.5h25.5V205H4Z"/><path d="M234.5 153.5H260V179h-25.5v-25.5Z"/><path fill-rule="evenodd" clip-rule="evenodd" d="M259.235 154.265h-23.97v23.97h23.97v-23.97ZM234.5 153.5V179H260v-25.5h-25.5Z"/><path d="M234.5 205H260v25.5h-25.5V205Z"/><path fill-rule="evenodd" clip-rule="evenodd" d="M259.235 205.765h-23.97v23.97h23.97v-23.97ZM234.5 205v25.5H260V205h-25.5Z"/><path d="M29.5 102.5H55V128H29.5v-25.5Z"/><path fill-rule="evenodd" clip-rule="evenodd" d="M54.235 103.265h-23.97v23.97h23.97v-23.97ZM29.5 102.5V128H55v-25.5H29.5Z"/><path d="M4 179h25.5v26H4v-26Z"/><path fill-rule="evenodd" clip-rule="evenodd" d="M28.735 179.78H4.765v24.44h23.97v-24.44ZM4 179v26h25.5v-26H4Z"/><path d="M234.5 179H260v26h-25.5v-26Z"/><path fill-rule="evenodd" clip-rule="evenodd" d="M259.235 179.78h-23.97v24.44h23.97v-24.44ZM234.5 179v26H260v-26h-25.5Z"/><path d="M157.5 77H183v25.5h-25.5V77Z"/><path fill-rule="evenodd" clip-rule="evenodd" d="M182.235 77.765h-23.97v23.97h23.97v-23.97ZM157.5 77v25.5H183V77h-25.5Z"/><path d="M81 77h25.5v25.5H81V77Z"/><path fill-rule="evenodd" clip-rule="evenodd" d="M105.735 77.765h-23.97v23.97h23.97v-23.97ZM81 77v25.5h25.5V77H81Z"/></g><defs><filter id="a" x="0" y="0" width="264" height="264" filterUnits="userSpaceOnUse" color-interpolation-filters="sRGB"><feFlood flood-opacity="0" result="BackgroundImageFix"/><feColorMatrix in="SourceAlpha" values="0 0 0 0 0 0 0 0 0 0 0 0 0 0 0 0 0 0 127 0" result="hardAlpha"/><feOffset dy="4"/><feGaussianBlur stdDeviation="2"/><feComposite in2="hardAlpha" operator="out"/><feColorMatrix values="0 0 0 0 0 0 0 0 0 0 0 0 0 0 0 0 0 0 0.25 0"/><feBlend in2="BackgroundImageFix" result="effect1_dropShadow_320_77"/><feBlend in="SourceGraphic" in2="effect1_dropShadow_320_77" result="shape"/></filter></defs></svg>