<svg width="105" height="104" fill="none" xmlns="http://www.w3.org/2000/svg"><g clip-path="url(#a)"><path d="m65.422 15.57-10.41-6.92-3.46 5.205-5.205-3.46-3.46 5.205-5.204-3.46-10.38 15.615 5.205 3.46-3.46 5.204 5.205 3.46-3.46 5.205 5.205 3.46-3.46 5.205 5.205 3.46-3.46 5.205 5.205 3.46-3.46 5.205 5.205 3.46 3.46-5.205 5.205 3.46 3.46-5.205 5.205 3.46 3.46-5.205 5.204 3.46 3.46-5.205 5.205 3.46 3.46-5.205 5.205 3.46 10.38-15.615-5.205-3.46 3.46-5.205-5.205-3.46 3.46-5.205-10.41-6.92-3.46 5.205-5.205-3.46-3.46 5.206-5.205-3.46 3.46-5.205-5.205-3.46 3.46-5.205Zm-3.46 5.205-3.46 5.205 5.205 3.46-3.46 5.204 5.205 3.46 3.46-5.204 5.205 3.46 3.46-5.206 10.41 6.92-3.46 5.205 5.205 3.46-10.38 15.615-5.205-3.46-3.46 5.205-5.205-3.46-3.46 5.205-5.204-3.46-3.46 5.205-5.205-3.46-3.46 5.205-5.205-3.46 3.46-5.205-5.205-3.46 3.46-5.205-5.205-3.46 3.46-5.205-5.205-3.46 3.46-5.204-5.205-3.46L42.888 15.6l5.205 3.46 3.46-5.205 10.41 6.92Z" fill="#775ADA" fill-opacity=".1"/></g><defs><clipPath id="a"><path fill="#fff" transform="rotate(33.614 21 69.526)" d="M0 0h75v75H0z"/></clipPath></defs></svg>