<svg width="644" height="404" fill="none" xmlns="http://www.w3.org/2000/svg"><path d="M109.938 178.625h109.374c18.095 0 32.813-14.718 32.813-32.813 0-18.094-14.718-32.812-32.813-32.812h-10.937a10.93 10.93 0 0 0-10.937 10.938 10.93 10.93 0 0 0 10.937 10.937h10.937c6.037 0 10.938 4.901 10.938 10.937 0 6.037-4.901 10.938-10.938 10.938H109.938A10.928 10.928 0 0 0 99 167.688a10.928 10.928 0 0 0 10.938 10.937Zm43.75 43.75h-43.75A10.93 10.93 0 0 0 99 233.312a10.93 10.93 0 0 0 10.938 10.938h43.75c6.036 0 10.937 4.901 10.937 10.938 0 6.036-4.901 10.937-10.937 10.937H142.75a10.93 10.93 0 0 0-10.938 10.937A10.93 10.93 0 0 0 142.75 288h10.938c18.094 0 32.812-14.718 32.812-32.812 0-18.095-14.731-32.813-32.812-32.813Zm87.5-32.813h-131.25A10.928 10.928 0 0 0 99 200.5c0 6.05 4.891 10.938 10.938 10.938h131.25c6.036 0 10.937 4.901 10.937 10.937s-4.901 10.937-10.937 10.937H230.25a10.931 10.931 0 0 0-10.938 10.938 10.931 10.931 0 0 0 10.938 10.938h10.938c18.094 0 32.812-14.718 32.812-32.813 0-18.095-14.731-32.813-32.812-32.813ZM378.48 190.2c0 1.073-.093 2.007-.28 2.8.187.747.28 1.68.28 2.8 0 1.073-.093 2.007-.28 2.8h-2.8c.187.747.28 1.68.28 2.8 0 1.073-.093 2.007-.28 2.8h-14c.187.747.28 1.68.28 2.8 0 1.073-.093 2.007-.28 2.8.187.747.28 1.68.28 2.8 0 1.073-.093 2.007-.28 2.8.187.747.28 1.68.28 2.8 0 1.073-.093 2.007-.28 2.8h-5.6c-.187-.793-.28-1.727-.28-2.8 0-1.12.093-2.053.28-2.8-.187-.793-.28-1.727-.28-2.8 0-1.12.093-2.053.28-2.8-.187-.793-.28-1.727-.28-2.8 0-1.12.093-2.053.28-2.8-.187-.793-.28-1.727-.28-2.8 0-1.12.093-2.053.28-2.8-.187-.793-.28-1.727-.28-2.8 0-1.12.093-2.053.28-2.8-.187-.793-.28-1.727-.28-2.8 0-1.12.093-2.053.28-2.8-.187-.793-.28-1.727-.28-2.8 0-1.12.093-2.053.28-2.8h19.6c.187.747.28 1.68.28 2.8 0 1.073-.093 2.007-.28 2.8h2.8c.187.747.28 1.68.28 2.8Zm-5.88 8.4c-.187-.793-.28-1.727-.28-2.8 0-1.12.093-2.053.28-2.8-.187-.793-.28-1.727-.28-2.8 0-1.12.093-2.053.28-2.8h-11.2c.187.747.28 1.68.28 2.8 0 1.073-.093 2.007-.28 2.8.187.747.28 1.68.28 2.8 0 1.073-.093 2.007-.28 2.8h11.2Zm33.627 0c.187.747.28 1.68.28 2.8 0 1.073-.093 2.007-.28 2.8.187.747.28 1.68.28 2.8 0 1.073-.093 2.007-.28 2.8h-2.1c.187.747.28 1.68.28 2.8 0 1.073-.093 2.007-.28 2.8h-3.5c.187.747.28 1.68.28 2.8 0 1.073-.093 2.007-.28 2.8h-11.2c-.186-.793-.28-1.727-.28-2.8 0-1.12.094-2.053.28-2.8h-3.5c-.186-.793-.28-1.727-.28-2.8 0-1.12.094-2.053.28-2.8h-2.1c-.186-.793-.28-1.727-.28-2.8 0-1.12.094-2.053.28-2.8-.186-.793-.28-1.727-.28-2.8 0-1.12.094-2.053.28-2.8-.186-.793-.28-1.727-.28-2.8 0-1.12.094-2.053.28-2.8h2.1c-.186-.793-.28-1.727-.28-2.8 0-1.12.094-2.053.28-2.8h3.5c-.186-.793-.28-1.727-.28-2.8 0-1.12.094-2.053.28-2.8h11.2c.187.747.28 1.68.28 2.8 0 1.073-.093 2.007-.28 2.8h3.5c.187.747.28 1.68.28 2.8 0 1.073-.093 2.007-.28 2.8h2.1c.187.747.28 1.68.28 2.8 0 1.073-.093 2.007-.28 2.8Zm-5.6 11.2c-.186-.793-.28-1.727-.28-2.8 0-1.12.094-2.053.28-2.8-.186-.793-.28-1.727-.28-2.8 0-1.12.094-2.053.28-2.8-.186-.793-.28-1.727-.28-2.8 0-1.12.094-2.053.28-2.8h-2.1c-.186-.793-.28-1.727-.28-2.8 0-1.12.094-2.053.28-2.8h-7c.187.747.28 1.68.28 2.8 0 1.073-.093 2.007-.28 2.8h-2.1c.187.747.28 1.68.28 2.8 0 1.073-.093 2.007-.28 2.8.187.747.28 1.68.28 2.8 0 1.073-.093 2.007-.28 2.8.187.747.28 1.68.28 2.8 0 1.073-.093 2.007-.28 2.8h2.1c.187.747.28 1.68.28 2.8 0 1.073-.093 2.007-.28 2.8h7c-.186-.793-.28-1.727-.28-2.8 0-1.12.094-2.053.28-2.8h2.1Zm33.628 5.6c.186.747.28 1.68.28 2.8 0 1.073-.094 2.007-.28 2.8h-5.6c-.187-.793-.28-1.727-.28-2.8 0-1.12.093-2.053.28-2.8h-2.1c-.187-.793-.28-1.727-.28-2.8 0-1.12.093-2.053.28-2.8h-2.1c-.187-.793-.28-1.727-.28-2.8 0-1.12.093-2.053.28-2.8h-7c.186.747.28 1.68.28 2.8 0 1.073-.094 2.007-.28 2.8.186.747.28 1.68.28 2.8 0 1.073-.094 2.007-.28 2.8.186.747.28 1.68.28 2.8 0 1.073-.094 2.007-.28 2.8h-5.6c-.187-.793-.28-1.727-.28-2.8 0-1.12.093-2.053.28-2.8-.187-.793-.28-1.727-.28-2.8 0-1.12.093-2.053.28-2.8-.187-.793-.28-1.727-.28-2.8 0-1.12.093-2.053.28-2.8-.187-.793-.28-1.727-.28-2.8 0-1.12.093-2.053.28-2.8-.187-.793-.28-1.727-.28-2.8 0-1.12.093-2.053.28-2.8-.187-.793-.28-1.727-.28-2.8 0-1.12.093-2.053.28-2.8-.187-.793-.28-1.727-.28-2.8 0-1.12.093-2.053.28-2.8h19.6c.186.747.28 1.68.28 2.8 0 1.073-.094 2.007-.28 2.8h2.8c.186.747.28 1.68.28 2.8 0 1.073-.094 2.007-.28 2.8h-1.4c.186.747.28 1.68.28 2.8 0 1.073-.094 2.007-.28 2.8h-4.2c.186.747.28 1.68.28 2.8 0 1.073-.094 2.007-.28 2.8h1.4c.186.747.28 1.68.28 2.8 0 1.073-.094 2.007-.28 2.8h2.1c.186.747.28 1.68.28 2.8 0 1.073-.094 2.007-.28 2.8h2.1Zm-7-16.8c-.187-.793-.28-1.727-.28-2.8 0-1.12.093-2.053.28-2.8-.187-.793-.28-1.727-.28-2.8 0-1.12.093-2.053.28-2.8h-9.8c.186.747.28 1.68.28 2.8 0 1.073-.094 2.007-.28 2.8.186.747.28 1.68.28 2.8 0 1.073-.094 2.007-.28 2.8h9.8Zm35.307-14c0 1.073-.093 2.007-.28 2.8h-8.4c.187.747.28 1.68.28 2.8 0 1.073-.093 2.007-.28 2.8.187.747.28 1.68.28 2.8 0 1.073-.093 2.007-.28 2.8.187.747.28 1.68.28 2.8 0 1.073-.093 2.007-.28 2.8.187.747.28 1.68.28 2.8 0 1.073-.093 2.007-.28 2.8.187.747.28 1.68.28 2.8 0 1.073-.093 2.007-.28 2.8.187.747.28 1.68.28 2.8 0 1.073-.093 2.007-.28 2.8h-5.6c-.187-.793-.28-1.727-.28-2.8 0-1.12.093-2.053.28-2.8-.187-.793-.28-1.727-.28-2.8 0-1.12.093-2.053.28-2.8-.187-.793-.28-1.727-.28-2.8 0-1.12.093-2.053.28-2.8-.187-.793-.28-1.727-.28-2.8 0-1.12.093-2.053.28-2.8-.187-.793-.28-1.727-.28-2.8 0-1.12.093-2.053.28-2.8-.187-.793-.28-1.727-.28-2.8 0-1.12.093-2.053.28-2.8h-8.4c-.187-.793-.28-1.727-.28-2.8 0-1.12.093-2.053.28-2.8h22.4c.187.747.28 1.68.28 2.8Zm24.947 14c.187.747.28 1.68.28 2.8 0 1.073-.093 2.007-.28 2.8h-11.2c.187.747.28 1.68.28 2.8 0 1.073-.093 2.007-.28 2.8.187.747.28 1.68.28 2.8 0 1.073-.093 2.007-.28 2.8.187.747.28 1.68.28 2.8 0 1.073-.093 2.007-.28 2.8h-5.6c-.186-.793-.28-1.727-.28-2.8 0-1.12.094-2.053.28-2.8-.186-.793-.28-1.727-.28-2.8 0-1.12.094-2.053.28-2.8-.186-.793-.28-1.727-.28-2.8 0-1.12.094-2.053.28-2.8-.186-.793-.28-1.727-.28-2.8 0-1.12.094-2.053.28-2.8-.186-.793-.28-1.727-.28-2.8 0-1.12.094-2.053.28-2.8-.186-.793-.28-1.727-.28-2.8 0-1.12.094-2.053.28-2.8-.186-.793-.28-1.727-.28-2.8 0-1.12.094-2.053.28-2.8h16.8c.187.747.28 1.68.28 2.8 0 1.073-.093 2.007-.28 2.8h-11.2c.187.747.28 1.68.28 2.8 0 1.073-.093 2.007-.28 2.8.187.747.28 1.68.28 2.8 0 1.073-.093 2.007-.28 2.8h11.2Zm30.828 0c.186.747.28 1.68.28 2.8 0 1.073-.094 2.007-.28 2.8.186.747.28 1.68.28 2.8 0 1.073-.094 2.007-.28 2.8h-2.1c.186.747.28 1.68.28 2.8 0 1.073-.094 2.007-.28 2.8h-3.5c.186.747.28 1.68.28 2.8 0 1.073-.094 2.007-.28 2.8h-11.2c-.187-.793-.28-1.727-.28-2.8 0-1.12.093-2.053.28-2.8h-3.5c-.187-.793-.28-1.727-.28-2.8 0-1.12.093-2.053.28-2.8h-2.1c-.187-.793-.28-1.727-.28-2.8 0-1.12.093-2.053.28-2.8-.187-.793-.28-1.727-.28-2.8 0-1.12.093-2.053.28-2.8-.187-.793-.28-1.727-.28-2.8 0-1.12.093-2.053.28-2.8h2.1c-.187-.793-.28-1.727-.28-2.8 0-1.12.093-2.053.28-2.8h3.5c-.187-.793-.28-1.727-.28-2.8 0-1.12.093-2.053.28-2.8h11.2c.186.747.28 1.68.28 2.8 0 1.073-.094 2.007-.28 2.8h3.5c.186.747.28 1.68.28 2.8 0 1.073-.094 2.007-.28 2.8h2.1c.186.747.28 1.68.28 2.8 0 1.073-.094 2.007-.28 2.8Zm-5.6 11.2c-.187-.793-.28-1.727-.28-2.8 0-1.12.093-2.053.28-2.8-.187-.793-.28-1.727-.28-2.8 0-1.12.093-2.053.28-2.8-.187-.793-.28-1.727-.28-2.8 0-1.12.093-2.053.28-2.8h-2.1c-.187-.793-.28-1.727-.28-2.8 0-1.12.093-2.053.28-2.8h-7c.186.747.28 1.68.28 2.8 0 1.073-.094 2.007-.28 2.8h-2.1c.186.747.28 1.68.28 2.8 0 1.073-.094 2.007-.28 2.8.186.747.28 1.68.28 2.8 0 1.073-.094 2.007-.28 2.8.186.747.28 1.68.28 2.8 0 1.073-.094 2.007-.28 2.8h2.1c.186.747.28 1.68.28 2.8 0 1.073-.094 2.007-.28 2.8h7c-.187-.793-.28-1.727-.28-2.8 0-1.12.093-2.053.28-2.8h2.1Zm33.627 5.6c.187.747.28 1.68.28 2.8 0 1.073-.093 2.007-.28 2.8h-19.6c-.187-.793-.28-1.727-.28-2.8 0-1.12.093-2.053.28-2.8-.187-.793-.28-1.727-.28-2.8 0-1.12.093-2.053.28-2.8-.187-.793-.28-1.727-.28-2.8 0-1.12.093-2.053.28-2.8-.187-.793-.28-1.727-.28-2.8 0-1.12.093-2.053.28-2.8-.187-.793-.28-1.727-.28-2.8 0-1.12.093-2.053.28-2.8-.187-.793-.28-1.727-.28-2.8 0-1.12.093-2.053.28-2.8-.187-.793-.28-1.727-.28-2.8 0-1.12.093-2.053.28-2.8h5.6c.187.747.28 1.68.28 2.8 0 1.073-.093 2.007-.28 2.8.187.747.28 1.68.28 2.8 0 1.073-.093 2.007-.28 2.8.187.747.28 1.68.28 2.8 0 1.073-.093 2.007-.28 2.8.187.747.28 1.68.28 2.8 0 1.073-.093 2.007-.28 2.8.187.747.28 1.68.28 2.8 0 1.073-.093 2.007-.28 2.8.187.747.28 1.68.28 2.8 0 1.073-.093 2.007-.28 2.8h14Zm23.827 0c.187.747.28 1.68.28 2.8 0 1.073-.093 2.007-.28 2.8h-14c-.186-.793-.28-1.727-.28-2.8 0-1.12.094-2.053.28-2.8h4.2c-.186-.793-.28-1.727-.28-2.8 0-1.12.094-2.053.28-2.8-.186-.793-.28-1.727-.28-2.8 0-1.12.094-2.053.28-2.8-.186-.793-.28-1.727-.28-2.8 0-1.12.094-2.053.28-2.8-.186-.793-.28-1.727-.28-2.8 0-1.12.094-2.053.28-2.8-.186-.793-.28-1.727-.28-2.8 0-1.12.094-2.053.28-2.8h-4.2c-.186-.793-.28-1.727-.28-2.8 0-1.12.094-2.053.28-2.8h14c.187.747.28 1.68.28 2.8 0 1.073-.093 2.007-.28 2.8h-4.2c.187.747.28 1.68.28 2.8 0 1.073-.093 2.007-.28 2.8.187.747.28 1.68.28 2.8 0 1.073-.093 2.007-.28 2.8.187.747.28 1.68.28 2.8 0 1.073-.093 2.007-.28 2.8.187.747.28 1.68.28 2.8 0 1.073-.093 2.007-.28 2.8.187.747.28 1.68.28 2.8 0 1.073-.093 2.007-.28 2.8h4.2Zm32.228-16.8c.186.747.28 1.68.28 2.8 0 1.073-.094 2.007-.28 2.8.186.747.28 1.68.28 2.8 0 1.073-.094 2.007-.28 2.8h-2.1c.186.747.28 1.68.28 2.8 0 1.073-.094 2.007-.28 2.8h-3.5c.186.747.28 1.68.28 2.8 0 1.073-.094 2.007-.28 2.8h-11.2c-.187-.793-.28-1.727-.28-2.8 0-1.12.093-2.053.28-2.8h-3.5c-.187-.793-.28-1.727-.28-2.8 0-1.12.093-2.053.28-2.8h-2.1c-.187-.793-.28-1.727-.28-2.8 0-1.12.093-2.053.28-2.8-.187-.793-.28-1.727-.28-2.8 0-1.12.093-2.053.28-2.8-.187-.793-.28-1.727-.28-2.8 0-1.12.093-2.053.28-2.8h2.1c-.187-.793-.28-1.727-.28-2.8 0-1.12.093-2.053.28-2.8h3.5c-.187-.793-.28-1.727-.28-2.8 0-1.12.093-2.053.28-2.8h11.2c.186.747.28 1.68.28 2.8 0 1.073-.094 2.007-.28 2.8h3.5c.186.747.28 1.68.28 2.8 0 1.073-.094 2.007-.28 2.8h2.1c.186.747.28 1.68.28 2.8 0 1.073-.094 2.007-.28 2.8Zm-5.6 11.2c-.187-.793-.28-1.727-.28-2.8 0-1.12.093-2.053.28-2.8-.187-.793-.28-1.727-.28-2.8 0-1.12.093-2.053.28-2.8-.187-.793-.28-1.727-.28-2.8 0-1.12.093-2.053.28-2.8h-2.1c-.187-.793-.28-1.727-.28-2.8 0-1.12.093-2.053.28-2.8h-7c.186.747.28 1.68.28 2.8 0 1.073-.094 2.007-.28 2.8h-2.1c.186.747.28 1.68.28 2.8 0 1.073-.094 2.007-.28 2.8.186.747.28 1.68.28 2.8 0 1.073-.094 2.007-.28 2.8.186.747.28 1.68.28 2.8 0 1.073-.094 2.007-.28 2.8h2.1c.186.747.28 1.68.28 2.8 0 1.073-.094 2.007-.28 2.8h7c-.187-.793-.28-1.727-.28-2.8 0-1.12.093-2.053.28-2.8h2.1Z" fill="#fff" fill-opacity=".5"/><g filter="url(#a)"><rect x="2" width="640" height="400" rx="5" fill="#775ADA" fill-opacity=".1" shape-rendering="crispEdges"/></g><defs><filter id="a" x="0" y="0" width="644" height="404" filterUnits="userSpaceOnUse" color-interpolation-filters="sRGB"><feFlood flood-opacity="0" result="BackgroundImageFix"/><feColorMatrix in="SourceAlpha" values="0 0 0 0 0 0 0 0 0 0 0 0 0 0 0 0 0 0 127 0" result="hardAlpha"/><feOffset dy="2"/><feGaussianBlur stdDeviation="1"/><feComposite in2="hardAlpha" operator="out"/><feColorMatrix values="0 0 0 0 0.00392157 0 0 0 0 0.129412 0 0 0 0 0.27451 0 0 0 0.95 0"/><feBlend in2="BackgroundImageFix" result="effect1_dropShadow_366_147"/><feBlend in="SourceGraphic" in2="effect1_dropShadow_366_147" result="shape"/></filter></defs></svg>