<svg width="644" height="404" viewBox="0 0 644 404" fill="none" xmlns="http://www.w3.org/2000/svg">
<path d="M109.938 178.625H219.312C237.407 178.625 252.125 163.907 252.125 145.812C252.125 127.718 237.407 113 219.312 113H208.375C202.329 113 197.438 117.891 197.438 123.938C197.438 129.984 202.329 134.875 208.375 134.875H219.312C225.349 134.875 230.25 139.776 230.25 145.812C230.25 151.849 225.349 156.75 219.312 156.75H109.938C103.891 156.75 99 161.638 99 167.688C99 173.737 103.891 178.625 109.938 178.625ZM153.688 222.375H109.938C103.891 222.375 99 227.266 99 233.312C99 239.359 103.891 244.25 109.938 244.25H153.688C159.724 244.25 164.625 249.151 164.625 255.188C164.625 261.224 159.724 266.125 153.688 266.125H142.75C136.704 266.125 131.812 271.016 131.812 277.062C131.812 283.109 136.704 288 142.75 288H153.688C171.782 288 186.5 273.282 186.5 255.188C186.5 237.093 171.769 222.375 153.688 222.375ZM241.188 189.562H109.938C103.891 189.562 99 194.45 99 200.5C99 206.55 103.891 211.438 109.938 211.438H241.188C247.224 211.438 252.125 216.339 252.125 222.375C252.125 228.411 247.224 233.312 241.188 233.312H230.25C224.204 233.312 219.312 238.204 219.312 244.25C219.312 250.296 224.204 255.188 230.25 255.188H241.188C259.282 255.188 274 240.47 274 222.375C274 204.28 259.269 189.562 241.188 189.562Z" fill="white" fill-opacity="0.5"/>
<path d="M378.48 190.2C378.48 191.273 378.387 192.207 378.2 193C378.387 193.747 378.48 194.68 378.48 195.8C378.48 196.873 378.387 197.807 378.2 198.6H375.4C375.587 199.347 375.68 200.28 375.68 201.4C375.68 202.473 375.587 203.407 375.4 204.2H361.4C361.587 204.947 361.68 205.88 361.68 207C361.68 208.073 361.587 209.007 361.4 209.8C361.587 210.547 361.68 211.48 361.68 212.6C361.68 213.673 361.587 214.607 361.4 215.4C361.587 216.147 361.68 217.08 361.68 218.2C361.68 219.273 361.587 220.207 361.4 221H355.8C355.613 220.207 355.52 219.273 355.52 218.2C355.52 217.08 355.613 216.147 355.8 215.4C355.613 214.607 355.52 213.673 355.52 212.6C355.52 211.48 355.613 210.547 355.8 209.8C355.613 209.007 355.52 208.073 355.52 207C355.52 205.88 355.613 204.947 355.8 204.2C355.613 203.407 355.52 202.473 355.52 201.4C355.52 200.28 355.613 199.347 355.8 198.6C355.613 197.807 355.52 196.873 355.52 195.8C355.52 194.68 355.613 193.747 355.8 193C355.613 192.207 355.52 191.273 355.52 190.2C355.52 189.08 355.613 188.147 355.8 187.4C355.613 186.607 355.52 185.673 355.52 184.6C355.52 183.48 355.613 182.547 355.8 181.8H375.4C375.587 182.547 375.68 183.48 375.68 184.6C375.68 185.673 375.587 186.607 375.4 187.4H378.2C378.387 188.147 378.48 189.08 378.48 190.2ZM372.6 198.6C372.413 197.807 372.32 196.873 372.32 195.8C372.32 194.68 372.413 193.747 372.6 193C372.413 192.207 372.32 191.273 372.32 190.2C372.32 189.08 372.413 188.147 372.6 187.4H361.4C361.587 188.147 361.68 189.08 361.68 190.2C361.68 191.273 361.587 192.207 361.4 193C361.587 193.747 361.68 194.68 361.68 195.8C361.68 196.873 361.587 197.807 361.4 198.6H372.6ZM406.227 198.6C406.414 199.347 406.507 200.28 406.507 201.4C406.507 202.473 406.414 203.407 406.227 204.2C406.414 204.947 406.507 205.88 406.507 207C406.507 208.073 406.414 209.007 406.227 209.8H404.127C404.314 210.547 404.407 211.48 404.407 212.6C404.407 213.673 404.314 214.607 404.127 215.4H400.627C400.814 216.147 400.907 217.08 400.907 218.2C400.907 219.273 400.814 220.207 400.627 221H389.427C389.241 220.207 389.147 219.273 389.147 218.2C389.147 217.08 389.241 216.147 389.427 215.4H385.927C385.741 214.607 385.647 213.673 385.647 212.6C385.647 211.48 385.741 210.547 385.927 209.8H383.827C383.641 209.007 383.547 208.073 383.547 207C383.547 205.88 383.641 204.947 383.827 204.2C383.641 203.407 383.547 202.473 383.547 201.4C383.547 200.28 383.641 199.347 383.827 198.6C383.641 197.807 383.547 196.873 383.547 195.8C383.547 194.68 383.641 193.747 383.827 193H385.927C385.741 192.207 385.647 191.273 385.647 190.2C385.647 189.08 385.741 188.147 385.927 187.4H389.427C389.241 186.607 389.147 185.673 389.147 184.6C389.147 183.48 389.241 182.547 389.427 181.8H400.627C400.814 182.547 400.907 183.48 400.907 184.6C400.907 185.673 400.814 186.607 400.627 187.4H404.127C404.314 188.147 404.407 189.08 404.407 190.2C404.407 191.273 404.314 192.207 404.127 193H406.227C406.414 193.747 406.507 194.68 406.507 195.8C406.507 196.873 406.414 197.807 406.227 198.6ZM400.627 209.8C400.441 209.007 400.347 208.073 400.347 207C400.347 205.88 400.441 204.947 400.627 204.2C400.441 203.407 400.347 202.473 400.347 201.4C400.347 200.28 400.441 199.347 400.627 198.6C400.441 197.807 400.347 196.873 400.347 195.8C400.347 194.68 400.441 193.747 400.627 193H398.527C398.341 192.207 398.247 191.273 398.247 190.2C398.247 189.08 398.341 188.147 398.527 187.4H391.527C391.714 188.147 391.807 189.08 391.807 190.2C391.807 191.273 391.714 192.207 391.527 193H389.427C389.614 193.747 389.707 194.68 389.707 195.8C389.707 196.873 389.614 197.807 389.427 198.6C389.614 199.347 389.707 200.28 389.707 201.4C389.707 202.473 389.614 203.407 389.427 204.2C389.614 204.947 389.707 205.88 389.707 207C389.707 208.073 389.614 209.007 389.427 209.8H391.527C391.714 210.547 391.807 211.48 391.807 212.6C391.807 213.673 391.714 214.607 391.527 215.4H398.527C398.341 214.607 398.247 213.673 398.247 212.6C398.247 211.48 398.341 210.547 398.527 209.8H400.627ZM434.255 215.4C434.441 216.147 434.535 217.08 434.535 218.2C434.535 219.273 434.441 220.207 434.255 221H428.655C428.468 220.207 428.375 219.273 428.375 218.2C428.375 217.08 428.468 216.147 428.655 215.4H426.555C426.368 214.607 426.275 213.673 426.275 212.6C426.275 211.48 426.368 210.547 426.555 209.8H424.455C424.268 209.007 424.175 208.073 424.175 207C424.175 205.88 424.268 204.947 424.455 204.2H417.455C417.641 204.947 417.735 205.88 417.735 207C417.735 208.073 417.641 209.007 417.455 209.8C417.641 210.547 417.735 211.48 417.735 212.6C417.735 213.673 417.641 214.607 417.455 215.4C417.641 216.147 417.735 217.08 417.735 218.2C417.735 219.273 417.641 220.207 417.455 221H411.855C411.668 220.207 411.575 219.273 411.575 218.2C411.575 217.08 411.668 216.147 411.855 215.4C411.668 214.607 411.575 213.673 411.575 212.6C411.575 211.48 411.668 210.547 411.855 209.8C411.668 209.007 411.575 208.073 411.575 207C411.575 205.88 411.668 204.947 411.855 204.2C411.668 203.407 411.575 202.473 411.575 201.4C411.575 200.28 411.668 199.347 411.855 198.6C411.668 197.807 411.575 196.873 411.575 195.8C411.575 194.68 411.668 193.747 411.855 193C411.668 192.207 411.575 191.273 411.575 190.2C411.575 189.08 411.668 188.147 411.855 187.4C411.668 186.607 411.575 185.673 411.575 184.6C411.575 183.48 411.668 182.547 411.855 181.8H431.455C431.641 182.547 431.735 183.48 431.735 184.6C431.735 185.673 431.641 186.607 431.455 187.4H434.255C434.441 188.147 434.535 189.08 434.535 190.2C434.535 191.273 434.441 192.207 434.255 193H432.855C433.041 193.747 433.135 194.68 433.135 195.8C433.135 196.873 433.041 197.807 432.855 198.6H428.655C428.841 199.347 428.935 200.28 428.935 201.4C428.935 202.473 428.841 203.407 428.655 204.2H430.055C430.241 204.947 430.335 205.88 430.335 207C430.335 208.073 430.241 209.007 430.055 209.8H432.155C432.341 210.547 432.435 211.48 432.435 212.6C432.435 213.673 432.341 214.607 432.155 215.4H434.255ZM427.255 198.6C427.068 197.807 426.975 196.873 426.975 195.8C426.975 194.68 427.068 193.747 427.255 193C427.068 192.207 426.975 191.273 426.975 190.2C426.975 189.08 427.068 188.147 427.255 187.4H417.455C417.641 188.147 417.735 189.08 417.735 190.2C417.735 191.273 417.641 192.207 417.455 193C417.641 193.747 417.735 194.68 417.735 195.8C417.735 196.873 417.641 197.807 417.455 198.6H427.255ZM462.562 184.6C462.562 185.673 462.469 186.607 462.282 187.4H453.882C454.069 188.147 454.162 189.08 454.162 190.2C454.162 191.273 454.069 192.207 453.882 193C454.069 193.747 454.162 194.68 454.162 195.8C454.162 196.873 454.069 197.807 453.882 198.6C454.069 199.347 454.162 200.28 454.162 201.4C454.162 202.473 454.069 203.407 453.882 204.2C454.069 204.947 454.162 205.88 454.162 207C454.162 208.073 454.069 209.007 453.882 209.8C454.069 210.547 454.162 211.48 454.162 212.6C454.162 213.673 454.069 214.607 453.882 215.4C454.069 216.147 454.162 217.08 454.162 218.2C454.162 219.273 454.069 220.207 453.882 221H448.282C448.095 220.207 448.002 219.273 448.002 218.2C448.002 217.08 448.095 216.147 448.282 215.4C448.095 214.607 448.002 213.673 448.002 212.6C448.002 211.48 448.095 210.547 448.282 209.8C448.095 209.007 448.002 208.073 448.002 207C448.002 205.88 448.095 204.947 448.282 204.2C448.095 203.407 448.002 202.473 448.002 201.4C448.002 200.28 448.095 199.347 448.282 198.6C448.095 197.807 448.002 196.873 448.002 195.8C448.002 194.68 448.095 193.747 448.282 193C448.095 192.207 448.002 191.273 448.002 190.2C448.002 189.08 448.095 188.147 448.282 187.4H439.882C439.695 186.607 439.602 185.673 439.602 184.6C439.602 183.48 439.695 182.547 439.882 181.8H462.282C462.469 182.547 462.562 183.48 462.562 184.6ZM487.509 198.6C487.696 199.347 487.789 200.28 487.789 201.4C487.789 202.473 487.696 203.407 487.509 204.2H476.309C476.496 204.947 476.589 205.88 476.589 207C476.589 208.073 476.496 209.007 476.309 209.8C476.496 210.547 476.589 211.48 476.589 212.6C476.589 213.673 476.496 214.607 476.309 215.4C476.496 216.147 476.589 217.08 476.589 218.2C476.589 219.273 476.496 220.207 476.309 221H470.709C470.523 220.207 470.429 219.273 470.429 218.2C470.429 217.08 470.523 216.147 470.709 215.4C470.523 214.607 470.429 213.673 470.429 212.6C470.429 211.48 470.523 210.547 470.709 209.8C470.523 209.007 470.429 208.073 470.429 207C470.429 205.88 470.523 204.947 470.709 204.2C470.523 203.407 470.429 202.473 470.429 201.4C470.429 200.28 470.523 199.347 470.709 198.6C470.523 197.807 470.429 196.873 470.429 195.8C470.429 194.68 470.523 193.747 470.709 193C470.523 192.207 470.429 191.273 470.429 190.2C470.429 189.08 470.523 188.147 470.709 187.4C470.523 186.607 470.429 185.673 470.429 184.6C470.429 183.48 470.523 182.547 470.709 181.8H487.509C487.696 182.547 487.789 183.48 487.789 184.6C487.789 185.673 487.696 186.607 487.509 187.4H476.309C476.496 188.147 476.589 189.08 476.589 190.2C476.589 191.273 476.496 192.207 476.309 193C476.496 193.747 476.589 194.68 476.589 195.8C476.589 196.873 476.496 197.807 476.309 198.6H487.509ZM518.337 198.6C518.523 199.347 518.617 200.28 518.617 201.4C518.617 202.473 518.523 203.407 518.337 204.2C518.523 204.947 518.617 205.88 518.617 207C518.617 208.073 518.523 209.007 518.337 209.8H516.237C516.423 210.547 516.517 211.48 516.517 212.6C516.517 213.673 516.423 214.607 516.237 215.4H512.737C512.923 216.147 513.017 217.08 513.017 218.2C513.017 219.273 512.923 220.207 512.737 221H501.537C501.35 220.207 501.257 219.273 501.257 218.2C501.257 217.08 501.35 216.147 501.537 215.4H498.037C497.85 214.607 497.757 213.673 497.757 212.6C497.757 211.48 497.85 210.547 498.037 209.8H495.937C495.75 209.007 495.657 208.073 495.657 207C495.657 205.88 495.75 204.947 495.937 204.2C495.75 203.407 495.657 202.473 495.657 201.4C495.657 200.28 495.75 199.347 495.937 198.6C495.75 197.807 495.657 196.873 495.657 195.8C495.657 194.68 495.75 193.747 495.937 193H498.037C497.85 192.207 497.757 191.273 497.757 190.2C497.757 189.08 497.85 188.147 498.037 187.4H501.537C501.35 186.607 501.257 185.673 501.257 184.6C501.257 183.48 501.35 182.547 501.537 181.8H512.737C512.923 182.547 513.017 183.48 513.017 184.6C513.017 185.673 512.923 186.607 512.737 187.4H516.237C516.423 188.147 516.517 189.08 516.517 190.2C516.517 191.273 516.423 192.207 516.237 193H518.337C518.523 193.747 518.617 194.68 518.617 195.8C518.617 196.873 518.523 197.807 518.337 198.6ZM512.737 209.8C512.55 209.007 512.457 208.073 512.457 207C512.457 205.88 512.55 204.947 512.737 204.2C512.55 203.407 512.457 202.473 512.457 201.4C512.457 200.28 512.55 199.347 512.737 198.6C512.55 197.807 512.457 196.873 512.457 195.8C512.457 194.68 512.55 193.747 512.737 193H510.637C510.45 192.207 510.357 191.273 510.357 190.2C510.357 189.08 510.45 188.147 510.637 187.4H503.637C503.823 188.147 503.917 189.08 503.917 190.2C503.917 191.273 503.823 192.207 503.637 193H501.537C501.723 193.747 501.817 194.68 501.817 195.8C501.817 196.873 501.723 197.807 501.537 198.6C501.723 199.347 501.817 200.28 501.817 201.4C501.817 202.473 501.723 203.407 501.537 204.2C501.723 204.947 501.817 205.88 501.817 207C501.817 208.073 501.723 209.007 501.537 209.8H503.637C503.823 210.547 503.917 211.48 503.917 212.6C503.917 213.673 503.823 214.607 503.637 215.4H510.637C510.45 214.607 510.357 213.673 510.357 212.6C510.357 211.48 510.45 210.547 510.637 209.8H512.737ZM546.364 215.4C546.551 216.147 546.644 217.08 546.644 218.2C546.644 219.273 546.551 220.207 546.364 221H526.764C526.577 220.207 526.484 219.273 526.484 218.2C526.484 217.08 526.577 216.147 526.764 215.4C526.577 214.607 526.484 213.673 526.484 212.6C526.484 211.48 526.577 210.547 526.764 209.8C526.577 209.007 526.484 208.073 526.484 207C526.484 205.88 526.577 204.947 526.764 204.2C526.577 203.407 526.484 202.473 526.484 201.4C526.484 200.28 526.577 199.347 526.764 198.6C526.577 197.807 526.484 196.873 526.484 195.8C526.484 194.68 526.577 193.747 526.764 193C526.577 192.207 526.484 191.273 526.484 190.2C526.484 189.08 526.577 188.147 526.764 187.4C526.577 186.607 526.484 185.673 526.484 184.6C526.484 183.48 526.577 182.547 526.764 181.8H532.364C532.551 182.547 532.644 183.48 532.644 184.6C532.644 185.673 532.551 186.607 532.364 187.4C532.551 188.147 532.644 189.08 532.644 190.2C532.644 191.273 532.551 192.207 532.364 193C532.551 193.747 532.644 194.68 532.644 195.8C532.644 196.873 532.551 197.807 532.364 198.6C532.551 199.347 532.644 200.28 532.644 201.4C532.644 202.473 532.551 203.407 532.364 204.2C532.551 204.947 532.644 205.88 532.644 207C532.644 208.073 532.551 209.007 532.364 209.8C532.551 210.547 532.644 211.48 532.644 212.6C532.644 213.673 532.551 214.607 532.364 215.4H546.364ZM570.191 215.4C570.378 216.147 570.471 217.08 570.471 218.2C570.471 219.273 570.378 220.207 570.191 221H556.191C556.005 220.207 555.911 219.273 555.911 218.2C555.911 217.08 556.005 216.147 556.191 215.4H560.391C560.205 214.607 560.111 213.673 560.111 212.6C560.111 211.48 560.205 210.547 560.391 209.8C560.205 209.007 560.111 208.073 560.111 207C560.111 205.88 560.205 204.947 560.391 204.2C560.205 203.407 560.111 202.473 560.111 201.4C560.111 200.28 560.205 199.347 560.391 198.6C560.205 197.807 560.111 196.873 560.111 195.8C560.111 194.68 560.205 193.747 560.391 193C560.205 192.207 560.111 191.273 560.111 190.2C560.111 189.08 560.205 188.147 560.391 187.4H556.191C556.005 186.607 555.911 185.673 555.911 184.6C555.911 183.48 556.005 182.547 556.191 181.8H570.191C570.378 182.547 570.471 183.48 570.471 184.6C570.471 185.673 570.378 186.607 570.191 187.4H565.991C566.178 188.147 566.271 189.08 566.271 190.2C566.271 191.273 566.178 192.207 565.991 193C566.178 193.747 566.271 194.68 566.271 195.8C566.271 196.873 566.178 197.807 565.991 198.6C566.178 199.347 566.271 200.28 566.271 201.4C566.271 202.473 566.178 203.407 565.991 204.2C566.178 204.947 566.271 205.88 566.271 207C566.271 208.073 566.178 209.007 565.991 209.8C566.178 210.547 566.271 211.48 566.271 212.6C566.271 213.673 566.178 214.607 565.991 215.4H570.191ZM602.419 198.6C602.605 199.347 602.699 200.28 602.699 201.4C602.699 202.473 602.605 203.407 602.419 204.2C602.605 204.947 602.699 205.88 602.699 207C602.699 208.073 602.605 209.007 602.419 209.8H600.319C600.505 210.547 600.599 211.48 600.599 212.6C600.599 213.673 600.505 214.607 600.319 215.4H596.819C597.005 216.147 597.099 217.08 597.099 218.2C597.099 219.273 597.005 220.207 596.819 221H585.619C585.432 220.207 585.339 219.273 585.339 218.2C585.339 217.08 585.432 216.147 585.619 215.4H582.119C581.932 214.607 581.839 213.673 581.839 212.6C581.839 211.48 581.932 210.547 582.119 209.8H580.019C579.832 209.007 579.739 208.073 579.739 207C579.739 205.88 579.832 204.947 580.019 204.2C579.832 203.407 579.739 202.473 579.739 201.4C579.739 200.28 579.832 199.347 580.019 198.6C579.832 197.807 579.739 196.873 579.739 195.8C579.739 194.68 579.832 193.747 580.019 193H582.119C581.932 192.207 581.839 191.273 581.839 190.2C581.839 189.08 581.932 188.147 582.119 187.4H585.619C585.432 186.607 585.339 185.673 585.339 184.6C585.339 183.48 585.432 182.547 585.619 181.8H596.819C597.005 182.547 597.099 183.48 597.099 184.6C597.099 185.673 597.005 186.607 596.819 187.4H600.319C600.505 188.147 600.599 189.08 600.599 190.2C600.599 191.273 600.505 192.207 600.319 193H602.419C602.605 193.747 602.699 194.68 602.699 195.8C602.699 196.873 602.605 197.807 602.419 198.6ZM596.819 209.8C596.632 209.007 596.539 208.073 596.539 207C596.539 205.88 596.632 204.947 596.819 204.2C596.632 203.407 596.539 202.473 596.539 201.4C596.539 200.28 596.632 199.347 596.819 198.6C596.632 197.807 596.539 196.873 596.539 195.8C596.539 194.68 596.632 193.747 596.819 193H594.719C594.532 192.207 594.439 191.273 594.439 190.2C594.439 189.08 594.532 188.147 594.719 187.4H587.719C587.905 188.147 587.999 189.08 587.999 190.2C587.999 191.273 587.905 192.207 587.719 193H585.619C585.805 193.747 585.899 194.68 585.899 195.8C585.899 196.873 585.805 197.807 585.619 198.6C585.805 199.347 585.899 200.28 585.899 201.4C585.899 202.473 585.805 203.407 585.619 204.2C585.805 204.947 585.899 205.88 585.899 207C585.899 208.073 585.805 209.007 585.619 209.8H587.719C587.905 210.547 587.999 211.48 587.999 212.6C587.999 213.673 587.905 214.607 587.719 215.4H594.719C594.532 214.607 594.439 213.673 594.439 212.6C594.439 211.48 594.532 210.547 594.719 209.8H596.819Z" fill="white" fill-opacity="0.5"/>
<g filter="url(#filter0_d_366_147)">
<rect x="2" width="640" height="400" rx="5" fill="#775ADA" fill-opacity="0.1" shape-rendering="crispEdges"/>
</g>
<defs>
<filter id="filter0_d_366_147" x="0" y="0" width="644" height="404" filterUnits="userSpaceOnUse" color-interpolation-filters="sRGB">
<feFlood flood-opacity="0" result="BackgroundImageFix"/>
<feColorMatrix in="SourceAlpha" type="matrix" values="0 0 0 0 0 0 0 0 0 0 0 0 0 0 0 0 0 0 127 0" result="hardAlpha"/>
<feOffset dy="2"/>
<feGaussianBlur stdDeviation="1"/>
<feComposite in2="hardAlpha" operator="out"/>
<feColorMatrix type="matrix" values="0 0 0 0 0.00392157 0 0 0 0 0.129412 0 0 0 0 0.27451 0 0 0 0.95 0"/>
<feBlend mode="normal" in2="BackgroundImageFix" result="effect1_dropShadow_366_147"/>
<feBlend mode="normal" in="SourceGraphic" in2="effect1_dropShadow_366_147" result="shape"/>
</filter>
</defs>
</svg>
